<svg width="186" height="48" viewBox="0 0 186 48" fill="none" xmlns="http://www.w3.org/2000/svg">
<path d="M100.439 39.8525V18.0899H100.291C97.5927 20.3545 93.8595 21.5513 92.3255 21.9932V22.1405C93.2496 24.0185 93.6562 26.0437 93.7486 27.6824C92.4734 26.5961 90.6067 25.4546 88.0932 25.4546C83.7131 25.4546 78.6122 29.4499 78.6122 36.6305C78.6122 44.8421 83.1772 47.7512 87.7606 47.7512C90.9579 47.7512 93.0278 46.1677 93.9519 45.1367C94.1921 46.1677 94.9869 47.4013 97.0383 47.4013H102.546V47.254C101.529 46.4255 100.439 44.1425 100.439 39.8525ZM93.8595 43.9399C92.9724 44.8237 92.0483 45.3208 90.9024 45.3208C86.7811 45.3208 85.4504 39.6316 85.4504 35.6915C85.4504 32.3405 86.4299 27.5351 90.2186 27.5351C91.5493 27.5351 92.9169 28.1243 93.8595 29.1185V43.9399ZM184.715 47.254V47.4013H179.318C176.416 47.4013 176.028 45.376 176.028 44.0504V38.2691C176.028 35.3601 176.084 32.2301 174.753 29.5788V29.4315C176.269 28.9896 179.762 27.9402 182.46 25.6755H182.608V39.8525C182.608 44.1425 183.68 46.4255 184.715 47.254ZM185.214 20.8701C184.53 19.4892 183.402 18.3476 181.868 18.3476C178.375 18.3476 176.601 23.5766 176.601 26.6513H176.749C178.727 22.6928 182.497 21.4592 185.214 20.8701ZM68.9464 39.8525C68.9464 44.1609 70.0368 46.4255 71.0533 47.2724V47.4197H65.6567C63.5498 47.4197 62.7551 46.3335 62.4594 45.1919C60.9809 46.5176 59.1142 47.7696 56.1202 47.7696C52.0358 47.7696 48.9494 45.4497 48.9494 40.3128V38.2875C48.9494 35.3785 49.0048 32.2485 47.6742 29.5972V29.4499C49.1896 29.008 52.6827 27.9586 55.381 25.6939H55.5288V39.1345C55.5288 42.6511 56.1757 45.3576 58.9664 45.3576C60.1861 45.3576 61.4244 44.8237 62.367 43.9768V38.2875C62.367 35.3785 62.4224 32.2485 61.0917 29.5972V29.4499C62.6072 29.008 66.1002 27.9586 68.7985 25.6939H68.9464V39.8525ZM125.019 40.6811C125.906 44.8421 127.034 46.3703 128.457 47.254V47.4013H123.633C121.12 47.4013 119.253 46.3703 118.514 43.0009L116.444 33.5557C115.612 29.6524 114.928 28.069 113.302 28.069C112.378 28.069 111.583 28.8055 110.992 29.6524L110.936 39.8341C110.936 44.1425 112.008 46.4071 113.043 47.254V47.4013H104.339V30.7019C104.339 27.7929 104.135 24.8286 102.823 22.1589V22.0116C104.339 21.5697 108.09 20.3729 110.789 18.1083H110.936V28.1427C111.731 27.1484 113.893 25.473 116.592 25.473C120.621 25.473 122.34 28.4925 123.171 32.3405L125.019 40.6811ZM20.839 40.6811L19.0648 32.3221C17.9374 27.0932 14.9804 25.4546 11.358 25.4546C9.84249 25.4546 8.51182 25.7492 7.2366 26.2463V26.3936C9.45438 26.3383 10.4709 27.4799 11.2101 29.2658L10.5633 29.4683C4.46437 31.3463 0.398438 35.3601 0.398438 40.1471C0.398438 44.5475 4.0393 47.7512 8.30853 47.7512C10.859 47.7512 13.317 46.5176 14.851 44.6396C15.2945 46.1309 16.8655 47.4013 19.2311 47.4013H24.2026V47.254C22.7056 46.315 21.6707 44.5475 20.839 40.6811ZM12.2821 44.2345C8.75208 44.2345 6.58975 40.8836 6.58975 37.2197C6.58975 33.7583 8.51182 31.3463 11.5613 30.2968C11.7646 30.886 12.0048 31.733 12.3929 33.5557L14.6107 43.6822C13.9084 44.0504 13.1137 44.2345 12.2821 44.2345ZM36.9549 25.4546C34.5523 25.4546 32.6302 26.3383 31.4104 27.13V18.1083H31.2626C28.5643 20.3729 24.831 21.5697 23.297 22.0116V22.1589C24.6277 24.8286 24.8125 27.7929 24.8125 30.7019V47.4013C26.328 47.4013 28.8969 46.9042 30.8005 45.5786C31.8909 46.5728 33.9054 47.6959 36.7516 47.6959C41.9634 47.6959 46.6207 43.7926 46.6207 36.4832C46.6207 29.1737 41.9079 25.473 36.9549 25.4546ZM34.9404 45.8363C33.5173 45.8363 32.2421 45.2472 31.4104 44.4555V28.4373C32.1497 28.0506 32.8889 27.7929 33.7206 27.7929C37.6017 27.7929 39.8195 32.7824 39.8195 38.1218C39.801 42.7063 38.1377 45.8363 34.9404 45.8363ZM164.034 25.473C161.631 25.473 159.709 26.3567 158.489 27.1484V18.1083H158.342C155.643 20.3729 151.91 21.5697 150.376 22.0116V22.1589C151.707 24.8286 151.891 27.7929 151.891 30.7019V47.4013C153.407 47.4013 155.976 46.9042 157.879 45.5786C158.951 46.5728 160.984 47.6959 163.831 47.6959C169.042 47.6959 173.718 43.7926 173.718 36.4832C173.718 29.1737 168.987 25.473 164.034 25.473ZM162.019 45.8363C160.596 45.8363 159.321 45.2472 158.489 44.4555V28.4373C159.229 28.0506 159.968 27.7929 160.8 27.7929C164.681 27.7929 166.898 32.7824 166.898 38.1218C166.88 42.7248 165.217 45.8363 162.019 45.8363ZM147.918 40.6995L146.144 32.3405C145.016 27.1116 142.059 25.473 138.437 25.473C136.921 25.473 135.591 25.7676 134.316 26.2647V26.412C136.533 26.3567 137.55 27.4983 138.289 29.2842L137.642 29.4867C131.543 31.3647 127.477 35.3601 127.477 40.1655C127.477 44.5659 131.118 47.7696 135.387 47.7696C137.938 47.7696 140.396 46.536 141.93 44.658C142.373 46.1493 143.944 47.4197 146.31 47.4197H151.263V47.2724C149.822 46.3703 148.75 44.6396 147.918 40.6995ZM139.361 44.2529C135.831 44.2529 133.669 40.902 133.669 37.2381C133.669 33.7767 135.591 31.3647 138.622 30.3153C138.825 30.9044 139.065 31.7514 139.453 33.5741L141.671 43.7006C140.987 44.0504 140.193 44.2529 139.361 44.2529ZM94.4509 6.93238C94.6357 5.25692 95.4489 4.15222 96.835 4.15222C97.5558 4.15222 98.1102 4.68615 98.1102 5.29374C98.1102 6.74827 96.5208 6.93238 95.4489 6.93238H94.4509ZM91.4938 8.66308C91.4938 11.5169 93.7671 13.6711 96.7056 13.6711C99.6442 13.6711 101.511 11.3512 101.548 8.71832H101.455C101.178 10.3938 99.9584 11.3512 98.3505 11.3512C96.1697 11.3512 94.4139 9.98873 94.4139 7.52156H100.716C100.716 4.88868 98.6462 3.56304 96.6871 3.56304C93.7856 3.56304 91.4938 5.66198 91.4938 8.66308ZM81.1257 8.66308C81.1257 11.5169 83.4174 13.6711 86.1896 13.6711C89.1652 13.6711 90.6807 11.7194 90.9764 9.34432H90.9209C90.4774 10.5779 89.5902 11.3512 88.0008 11.3512C85.4504 11.3512 83.787 9.49161 83.787 7.17174C83.787 5.3858 84.8035 4.29951 86.3375 4.29951C87.8715 4.29951 89.2206 5.40421 90.2186 7.66885H90.2741V4.57568C88.9434 3.85763 87.9084 3.56304 86.2081 3.56304C83.4544 3.56304 81.1442 5.66198 81.1257 8.66308ZM69.9629 5.40421C70.5543 6.61938 70.6467 7.94503 70.6467 9.27067V13.5054H74.5833V13.4501C74.1212 13.0819 73.6592 12.0324 73.6592 10.0808V5.53309C73.9364 5.12804 74.2876 4.81504 74.7126 4.81504C75.4519 4.81504 75.7661 5.45945 76.1357 7.22697L77.0598 11.4985C77.4109 13.0451 78.2426 13.5054 79.3884 13.5054H81.5693V13.4501C80.9409 13.0451 80.4234 12.3454 80.0168 10.449L79.2036 6.67462C78.834 4.9071 78.0208 3.54463 76.1911 3.54463C74.9898 3.54463 73.9918 4.31792 73.6407 4.74139V3.54463H73.5853C72.3839 4.5941 70.6282 5.12804 69.9629 5.33056V5.40421ZM62.4779 6.93238C62.6627 5.25692 63.4759 4.15222 64.862 4.15222C65.5827 4.15222 66.1372 4.68615 66.1372 5.29374C66.1372 6.74827 64.5478 6.93238 63.4759 6.93238H62.4779ZM59.5393 8.66308C59.5393 11.5169 61.8125 13.6711 64.7511 13.6711C67.6896 13.6711 69.5563 11.3512 69.5932 8.71832H69.5008C69.2236 10.3938 68.0038 11.3512 66.3959 11.3512C64.2151 11.3512 62.4594 9.98873 62.4594 7.52156H68.7616C68.7616 4.88868 66.6916 3.56304 64.7326 3.56304C61.831 3.56304 59.5393 5.66198 59.5393 8.66308ZM55.344 4.11539C55.344 2.62404 56.1757 0.248932 57.7096 0.248932C58.4489 0.248932 58.9848 0.746048 59.3175 1.39046C58.0423 1.66663 56.342 2.25581 55.4179 4.11539H55.344ZM46.325 5.3858C46.9534 6.65621 46.9164 8.01868 46.9164 9.3075V13.5054H50.9269V13.4501C50.3909 13.0819 49.9289 12.0324 49.9289 10.0808V8.57103C49.9289 6.50891 52.1282 6.19592 53.4589 6.47209L54.0872 3.56304C51.6107 3.78398 50.3909 4.98074 49.9289 6.93238V3.58145H49.8735C48.7276 4.63092 47.0273 5.09121 46.3435 5.31215L46.325 5.3858ZM38.84 6.93238C39.0248 5.25692 39.838 4.15222 41.2241 4.15222C41.9449 4.15222 42.4993 4.68615 42.4993 5.29374C42.4993 6.74827 40.9099 6.93238 39.838 6.93238H38.84ZM35.9014 8.66308C35.9014 11.5169 38.1747 13.6711 41.1132 13.6711C44.0518 13.6711 45.9184 11.3512 45.9554 8.71832H45.863C45.5858 10.3938 44.366 11.3512 42.7581 11.3512C40.5773 11.3512 38.8215 9.98873 38.8215 7.52156H45.1237C45.1237 4.88868 43.0538 3.56304 41.0947 3.56304C38.1931 3.56304 35.9014 5.66198 35.9014 8.66308ZM27.8989 11.8667V5.40421C28.3055 4.96233 28.7306 4.7598 29.2666 4.7598C31.1517 4.7598 31.7801 7.22697 31.7801 9.03132C31.7801 10.5779 31.318 12.64 29.5808 12.64C28.9524 12.64 28.324 12.327 27.8989 11.8667ZM24.2581 5.40421C24.8864 6.69303 24.8495 8.09232 24.8864 9.45479V17.648C25.8105 17.335 27.2151 16.7827 28.361 15.8621C28.0837 15.2361 27.8989 14.4996 27.8989 13.487V12.6584C28.4903 13.1555 29.359 13.7079 30.5603 13.7079C32.5378 13.7079 34.9034 11.8851 34.9034 8.60785C34.9034 4.9071 32.7965 3.56304 30.7081 3.56304C29.2851 3.56304 28.324 4.2811 27.8805 4.74139V3.56304H27.788C26.6052 4.64933 24.9604 5.10962 24.2581 5.29374V5.40421ZM13.5203 3.80239C14.0748 3.94969 14.5738 4.66774 15.886 6.61938L17.5678 9.12338L16.2925 10.762C14.8695 12.6032 14.1487 13.1371 13.5573 13.4133V13.5054H17.1612V13.4133C16.5143 12.6953 16.3295 11.7194 17.4014 10.2649L17.9004 9.62049L19.3974 11.8851C20.1182 12.9714 20.7651 13.5238 21.7816 13.5238H24.4429V13.4133C23.8884 13.266 23.3525 12.4927 22.0773 10.5963L20.2476 7.9082L21.2641 6.36162C22.4839 4.57569 23.4079 4.07857 23.9993 3.80239V3.71033H20.7651V3.80239C21.3934 4.70457 20.9499 5.84609 20.303 6.8035L19.8964 7.4295L18.4734 5.36739C17.6971 4.26269 17.1057 3.72875 16.0892 3.72875H13.5203V3.80239ZM7.21812 6.93238C7.40293 5.25692 8.21612 4.15222 9.60223 4.15222C10.323 4.15222 10.8775 4.68615 10.8775 5.29374C10.8775 6.74827 9.28805 6.93238 8.21612 6.93238H7.21812ZM4.27956 8.66308C4.27956 11.5169 6.55278 13.6711 9.49134 13.6711C12.4299 13.6711 14.2965 11.3512 14.3335 8.71832H14.2411C13.9639 10.3938 12.7441 11.3512 11.1362 11.3512C8.95538 11.3512 7.19964 9.98873 7.19964 7.52156H13.5018C13.5018 4.88868 11.4319 3.56304 9.47286 3.56304C6.57127 3.56304 4.27956 5.66198 4.27956 8.66308ZM55.0668 9.3075V11.9588C55.0668 12.64 55.2516 13.5054 56.6192 13.5054H59.0957V13.4501C58.5413 13.0819 58.0793 12.0324 58.0793 10.0808V3.58145H58.0238C56.841 4.63092 55.1592 5.09121 54.4938 5.31215V5.36739C55.1037 6.65621 55.0668 8.01868 55.0668 9.3075Z" fill="black"/>
</svg>
